<svg width="318" height="869" viewBox="0 0 318 869" fill="none" xmlns="http://www.w3.org/2000/svg">
<path d="M21.7756 423.845L21.4245 423.489L21.7756 423.845ZM288.023 0.84738C247.364 127.694 213.832 200.667 173.924 258.26C134.009 315.864 87.7062 358.1 21.4245 423.489L22.1267 424.201C88.3692 358.851 134.763 316.531 174.746 258.83C214.736 201.119 248.304 128.039 288.976 1.15262L288.023 0.84738ZM288.976 867.865C248.304 740.979 214.736 667.899 174.746 610.188C134.763 552.487 88.3692 510.167 22.1267 444.816L21.4245 445.528C87.7062 510.917 134.009 553.154 173.924 610.757C213.832 668.351 247.364 741.323 288.023 868.17L288.976 867.865ZM21.4245 423.489C15.299 429.532 15.299 439.485 21.4245 445.528L22.1267 444.816C16.3982 439.165 16.3982 429.852 22.1267 424.201L21.4245 423.489Z" fill="#302B3B"/>
<path d="M15.7345 418.8L16.0888 419.153L15.7345 418.8ZM240.023 0.84738C199.882 126.078 175.239 198.801 144.874 256.058C114.52 313.296 78.4405 355.094 15.3801 418.448L16.0888 419.153C79.1683 355.78 115.333 313.898 145.758 256.527C176.172 199.175 200.842 126.361 240.976 1.15262L240.023 0.84738ZM240.976 867.865C200.842 742.656 176.172 669.842 145.758 612.491C115.333 555.12 79.1683 513.237 16.0889 449.864L15.3801 450.57C78.4405 513.924 114.52 555.722 144.874 612.959C175.239 670.217 199.882 742.939 240.023 868.17L240.976 867.865ZM15.3801 418.448C6.57143 427.297 6.57146 441.72 15.3801 450.57L16.0889 449.864C7.66854 441.405 7.66852 427.613 16.0888 419.153L15.3801 418.448Z" fill="#302B3B"/>
<path d="M144.339 284.617C144.68 284.182 144.604 283.554 144.169 283.213C143.734 282.872 143.106 282.948 142.765 283.383L144.339 284.617ZM126.374 565.65C126.733 566.07 127.364 566.119 127.784 565.76C128.203 565.401 128.252 564.769 127.893 564.35L126.374 565.65ZM18.8313 447.335L18.122 448.039L18.8313 447.335ZM142.765 283.383C107.488 328.386 72.3237 366.752 18.143 420.992L19.558 422.405C73.7695 368.134 108.994 329.706 144.339 284.617L142.765 283.383ZM127.893 564.35C96.2331 527.361 65.325 492.711 19.5407 446.63L18.122 448.039C63.8633 494.078 94.7374 528.689 126.374 565.65L127.893 564.35ZM18.143 420.992C10.6919 428.451 10.6931 440.562 18.122 448.039L19.5407 446.63C12.8861 439.932 12.8876 429.083 19.558 422.405L18.143 420.992Z" fill="#302B3B"/>
<path fill-rule="evenodd" clip-rule="evenodd" d="M179.337 351.534C180.958 350.653 182.806 352.249 182.169 353.981L169.939 387.261C169.553 388.31 168 388.033 168 386.916V374.909C168 373.526 166.63 372.561 165.328 373.025L103.117 395.214C101.955 395.629 101.22 393.983 102.304 393.394L179.337 351.534Z" fill="#8033CC"/>
<path fill-rule="evenodd" clip-rule="evenodd" d="M179.337 518.002C180.958 518.883 182.806 517.287 182.169 515.555L169.939 482.275C169.553 481.227 168 481.503 168 482.62V494.627C168 496.01 166.63 496.975 165.328 496.511L103.117 474.322C101.955 473.907 101.22 475.553 102.304 476.142L179.337 518.002Z" fill="#8033CC"/>
<path fill-rule="evenodd" clip-rule="evenodd" d="M104 453C113.941 453 122 444.941 122 435C122 425.059 113.941 417 104 417C94.0589 417 86 425.059 86 435C86 444.941 94.0589 453 104 453ZM104 469C122.778 469 138 453.778 138 435C138 416.222 122.778 401 104 401C85.2223 401 70 416.222 70 435C70 453.778 85.2223 469 104 469Z" fill="#E4E1EA"/>
<path d="M145 409C145 413.418 148.582 417 153 417H158C167.941 417 176 425.059 176 435C176 444.941 167.941 453 158 453H153C148.582 453 145 456.582 145 461C145 465.418 148.582 469 153 469H158C176.778 469 192 453.778 192 435C192 416.222 176.778 401 158 401H153C148.582 401 145 404.582 145 409Z" fill="#E4E1EA"/>
<rect x="198" y="453" width="49" height="16" rx="8" fill="#E4E1EA"/>
<rect x="198" y="427" width="26" height="16" rx="8" fill="#E4E1EA"/>
<rect x="198" y="401" width="49" height="16" rx="8" fill="#E4E1EA"/>
<path d="M27.6569 428.991C24.5327 432.116 24.5327 437.181 27.6569 440.305L50.9914 463.64C54.1156 466.764 59.1809 466.764 62.3051 463.64C65.4293 460.515 65.4293 455.45 62.3051 452.326L46.0416 436.062C45.2606 435.281 45.2606 434.015 46.0416 433.234L62.3051 416.971C65.4293 413.846 65.4293 408.781 62.3051 405.657C59.1809 402.533 54.1156 402.533 50.9914 405.657L27.6569 428.991Z" fill="#E4E1EA"/>
<path d="M210.928 493.424C210.816 493.312 210.608 493.16 210.304 492.968C210.016 492.776 209.656 492.592 209.224 492.416C208.808 492.24 208.352 492.088 207.856 491.96C207.36 491.816 206.856 491.744 206.344 491.744C205.448 491.744 204.768 491.912 204.304 492.248C203.856 492.584 203.632 493.056 203.632 493.664C203.632 494.128 203.776 494.496 204.064 494.768C204.352 495.04 204.784 495.272 205.36 495.464C205.936 495.656 206.656 495.864 207.52 496.088C208.64 496.36 209.608 496.696 210.424 497.096C211.256 497.48 211.888 497.992 212.32 498.632C212.768 499.256 212.992 500.088 212.992 501.128C212.992 502.04 212.824 502.824 212.488 503.48C212.152 504.12 211.688 504.64 211.096 505.04C210.504 505.44 209.832 505.736 209.08 505.928C208.328 506.104 207.528 506.192 206.68 506.192C205.832 506.192 204.984 506.104 204.136 505.928C203.288 505.752 202.472 505.504 201.688 505.184C200.904 504.848 200.184 504.448 199.528 503.984L200.992 501.128C201.136 501.272 201.392 501.464 201.76 501.704C202.128 501.928 202.576 502.16 203.104 502.4C203.632 502.624 204.208 502.816 204.832 502.976C205.456 503.136 206.088 503.216 206.728 503.216C207.624 503.216 208.304 503.064 208.768 502.76C209.232 502.456 209.464 502.024 209.464 501.464C209.464 500.952 209.28 500.552 208.912 500.264C208.544 499.976 208.032 499.728 207.376 499.52C206.72 499.296 205.944 499.056 205.048 498.8C203.976 498.496 203.08 498.16 202.36 497.792C201.64 497.408 201.104 496.928 200.752 496.352C200.4 495.776 200.224 495.056 200.224 494.192C200.224 493.024 200.496 492.048 201.04 491.264C201.6 490.464 202.352 489.864 203.296 489.464C204.24 489.048 205.288 488.84 206.44 488.84C207.24 488.84 207.992 488.928 208.696 489.104C209.416 489.28 210.088 489.512 210.712 489.8C211.336 490.088 211.896 490.4 212.392 490.736L210.928 493.424ZM226.535 506V488.96H233.759C234.543 488.96 235.263 489.12 235.919 489.44C236.575 489.76 237.143 490.192 237.623 490.736C238.119 491.28 238.503 491.888 238.775 492.56C239.047 493.232 239.183 493.92 239.183 494.624C239.183 495.584 238.959 496.496 238.511 497.36C238.063 498.224 237.447 498.928 236.663 499.472C235.879 500.016 234.951 500.288 233.879 500.288H229.847V506H226.535ZM229.847 497.384H233.687C234.087 497.384 234.447 497.272 234.767 497.048C235.087 496.824 235.343 496.504 235.535 496.088C235.727 495.656 235.823 495.168 235.823 494.624C235.823 494.032 235.711 493.528 235.487 493.112C235.279 492.696 234.999 492.384 234.647 492.176C234.311 491.968 233.943 491.864 233.543 491.864H229.847V497.384ZM255.918 488.96H259.278L265.542 506H262.134L260.55 501.752H254.598L253.038 506H249.63L255.918 488.96ZM259.95 499.424L257.598 492.392L255.15 499.424H259.95ZM276.762 497.36C276.762 496.32 276.946 495.304 277.314 494.312C277.698 493.304 278.25 492.392 278.97 491.576C279.69 490.744 280.57 490.088 281.61 489.608C282.65 489.112 283.834 488.864 285.162 488.864C286.73 488.864 288.082 489.208 289.218 489.896C290.37 490.584 291.226 491.48 291.786 492.584L289.242 494.336C288.954 493.696 288.578 493.192 288.114 492.824C287.65 492.44 287.154 492.176 286.626 492.032C286.098 491.872 285.578 491.792 285.066 491.792C284.234 491.792 283.506 491.96 282.882 492.296C282.274 492.632 281.762 493.072 281.346 493.616C280.93 494.16 280.618 494.768 280.41 495.44C280.218 496.112 280.122 496.784 280.122 497.456C280.122 498.208 280.242 498.936 280.482 499.64C280.722 500.328 281.058 500.944 281.49 501.488C281.938 502.016 282.466 502.44 283.074 502.76C283.698 503.064 284.378 503.216 285.114 503.216C285.642 503.216 286.178 503.128 286.722 502.952C287.266 502.776 287.77 502.496 288.234 502.112C288.698 501.728 289.058 501.232 289.314 500.624L292.026 502.184C291.69 503.032 291.138 503.752 290.37 504.344C289.618 504.936 288.77 505.384 287.826 505.688C286.882 505.992 285.946 506.144 285.018 506.144C283.802 506.144 282.69 505.896 281.682 505.4C280.674 504.888 279.802 504.216 279.066 503.384C278.346 502.536 277.778 501.592 277.362 500.552C276.962 499.496 276.762 498.432 276.762 497.36ZM317.12 503.096V506H305.288V488.96H316.904V491.864H308.6V495.968H315.776V498.656H308.6V503.096H317.12Z" fill="#494257"/>
</svg>
