<svg viewBox="0 0 16 11" fill="none" xmlns="http://www.w3.org/2000/svg">
<path fill-rule="evenodd" clip-rule="evenodd" d="M5.95524 0.305628C6.36275 0.713131 6.36275 1.37383 5.95524 1.78133L2.51918 5.21739L5.95524 8.65345C6.36275 9.06096 6.36275 9.72165 5.95524 10.1292C5.54774 10.5367 4.88704 10.5367 4.47954 10.1292L0.305628 5.95524C-0.101876 5.54774 -0.101876 4.88704 0.305628 4.47954L4.47954 0.305628C4.88704 -0.101876 5.54774 -0.101876 5.95524 0.305628ZM10.0448 0.305628C10.4523 -0.101876 11.113 -0.101876 11.5205 0.305628L15.6944 4.47954C16.1019 4.88704 16.1019 5.54774 15.6944 5.95524L11.5205 10.1292C11.113 10.5367 10.4523 10.5367 10.0448 10.1292C9.63725 9.72165 9.63725 9.06096 10.0448 8.65345L13.4808 5.21739L10.0448 1.78133C9.63725 1.37383 9.63725 0.713131 10.0448 0.305628Z"/>
</svg>
