<svg width="125" height="96" viewBox="0 0 125 96" fill="none" xmlns="http://www.w3.org/2000/svg">
<path fill-rule="evenodd" clip-rule="evenodd" d="M84.1459 2.53371C85.7668 1.65292 87.6144 3.24941 86.9781 4.98092L81.7929 19.0899C81.4076 20.1384 79.8543 19.862 79.8543 18.745V15.7491C79.8543 14.3664 78.4847 13.4008 77.1824 13.8653L48.8782 23.9607C47.7162 24.3751 46.9808 22.7292 48.0648 22.1401L84.1459 2.53371Z" />
<path fill-rule="evenodd" clip-rule="evenodd" d="M84.1459 93.4663C85.7668 94.3471 87.6144 92.7506 86.9781 91.0191L81.7929 76.9101C81.4076 75.8616 79.8543 76.138 79.8543 77.255V80.2509C79.8543 81.6336 78.4847 82.5992 77.1824 82.1347L48.8782 72.0393C47.7162 71.6249 46.9808 73.2708 48.0648 73.8599L84.1459 93.4663Z" />
<path fill-rule="evenodd" clip-rule="evenodd" d="M44.0367 58.2036C49.6003 58.2036 54.1104 53.6934 54.1104 48.1299C54.1104 42.5663 49.6003 38.0562 44.0367 38.0562C38.4732 38.0562 33.9631 42.5663 33.9631 48.1299C33.9631 53.6934 38.4732 58.2036 44.0367 58.2036ZM44.0367 67.1579C54.5456 67.1579 63.0648 58.6388 63.0648 48.1299C63.0648 37.621 54.5456 29.1018 44.0367 29.1018C33.5278 29.1018 25.0087 37.621 25.0087 48.1299C25.0087 58.6388 33.5278 67.1579 44.0367 67.1579Z" />
<path d="M66.9823 33.579C66.9823 36.0517 68.9868 38.0562 71.4595 38.0562H74.2577C79.8213 38.0562 84.3314 42.5663 84.3314 48.1299C84.3314 53.6934 79.8213 58.2036 74.2577 58.2036H71.4595C68.9868 58.2036 66.9823 60.2081 66.9823 62.6807V62.6807C66.9823 65.1534 68.9868 67.1579 71.4595 67.1579H74.2577C84.7666 67.1579 93.2858 58.6388 93.2858 48.1299C93.2858 37.621 84.7666 29.1018 74.2577 29.1018H71.4595C68.9868 29.1018 66.9823 31.1063 66.9823 33.579V33.579Z" />
<rect x="96.6437" y="58.2036" width="27.4228" height="8.95438" rx="4.47719" />
<rect x="96.6437" y="43.6527" width="14.5509" height="8.95438" rx="4.47719" />
<rect x="96.6437" y="29.1018" width="27.4228" height="8.95438" rx="4.47719" />
<path d="M1.31134 44.7671C-0.437114 46.5155 -0.437111 49.3503 1.31134 51.0988L14.3705 64.1579C16.1189 65.9064 18.9537 65.9064 20.7022 64.1579C22.4506 62.4095 22.4506 59.5747 20.7022 57.8262L12.2231 49.3472C11.4421 48.5661 11.4421 47.2998 12.2231 46.5187L20.7022 38.0397C22.4506 36.2912 22.4506 33.4564 20.7022 31.7079C18.9537 29.9595 16.1189 29.9595 14.3705 31.7079L1.31134 44.7671Z" />
</svg>
