<svg viewBox="0 0 222 172" fill="none" xmlns="http://www.w3.org/2000/svg">
<path fill-rule="evenodd" clip-rule="evenodd" d="M154.337 2.53371C155.958 1.65292 157.806 3.24941 157.169 4.98093L144.939 38.2611C144.553 39.3096 143 39.0332 143 37.9161V25.909C143 24.5263 141.63 23.5607 140.328 24.0252L78.117 46.2143C76.9549 46.6288 76.2195 44.9828 77.3035 44.3938L154.337 2.53371Z" fill="#8033CC"/>
<path fill-rule="evenodd" clip-rule="evenodd" d="M154.337 169.002C155.958 169.883 157.806 168.287 157.169 166.555L144.939 133.275C144.553 132.227 143 132.503 143 133.62V145.627C143 147.01 141.63 147.975 140.328 147.511L78.117 125.322C76.9549 124.907 76.2195 126.553 77.3035 127.142L154.337 169.002Z" fill="#8033CC"/>
<path fill-rule="evenodd" clip-rule="evenodd" d="M79 104C88.9411 104 97 95.9411 97 86C97 76.0589 88.9411 68 79 68C69.0589 68 61 76.0589 61 86C61 95.9411 69.0589 104 79 104ZM79 120C97.7777 120 113 104.778 113 86C113 67.2223 97.7777 52 79 52C60.2223 52 45 67.2223 45 86C45 104.778 60.2223 120 79 120Z" fill="#E4E1EA"/>
<path d="M120 60C120 64.4183 123.582 68 128 68H133C142.941 68 151 76.0589 151 86C151 95.9411 142.941 104 133 104H128C123.582 104 120 107.582 120 112C120 116.418 123.582 120 128 120H133C151.778 120 167 104.778 167 86C167 67.2223 151.778 52 133 52H128C123.582 52 120 55.5817 120 60Z" fill="#E4E1EA"/>
<rect x="173" y="104" width="49" height="16" rx="8" fill="#E4E1EA"/>
<rect x="173" y="78" width="26" height="16" rx="8" fill="#E4E1EA"/>
<rect x="173" y="52" width="49" height="16" rx="8" fill="#E4E1EA"/>
<path d="M2.65685 79.9914C-0.467346 83.1156 -0.46734 88.1809 2.65685 91.3051L25.9914 114.64C29.1156 117.764 34.1809 117.764 37.3051 114.64C40.4293 111.515 40.4293 106.45 37.3051 103.326L21.0416 87.0625C20.2606 86.2814 20.2606 85.0151 21.0416 84.234L37.3051 67.9706C40.4293 64.8464 40.4293 59.7811 37.3051 56.6569C34.1809 53.5327 29.1156 53.5327 25.9914 56.6569L2.65685 79.9914Z" fill="#E4E1EA"/>
</svg>
