<svg viewBox="0 0 14 16" fill="none" xmlns="http://www.w3.org/2000/svg">
<path fill-rule="evenodd" clip-rule="evenodd" d="M9.39501 0.553468C9.33162 0.426503 9.24194 0.314482 9.13193 0.22485C9.02191 0.135218 8.89408 0.0700278 8.75692 0.0336111C8.61977 -0.00280568 8.47644 -0.00961445 8.33645 0.0136371C8.19646 0.0368886 8.06302 0.0896679 7.945 0.168468C7.6 0.398468 7.33101 0.726468 7.12301 1.04847C6.90901 1.37847 6.72001 1.76147 6.55301 2.16447C6.21901 2.96847 5.93901 3.93247 5.71301 4.89847C5.43969 6.07896 5.23501 7.27429 5.10001 8.47847C4.69314 8.21617 4.36622 7.84705 4.15501 7.41147C3.82701 6.73147 3.757 5.87747 3.757 4.75747C3.75696 4.55972 3.69829 4.36642 3.58841 4.20201C3.47852 4.0376 3.32236 3.90946 3.13966 3.83379C2.95696 3.75812 2.75593 3.73832 2.56197 3.77688C2.36802 3.81545 2.18986 3.91066 2.05001 4.05047C1.39917 4.6999 0.883032 5.47151 0.531232 6.32098C0.179433 7.17044 -0.00109811 8.08104 5.02513e-06 9.00047C8.80858e-05 10.1516 0.284051 11.2849 0.826743 12.3001C1.36944 13.3153 2.15411 14.1809 3.11125 14.8204C4.0684 15.4599 5.16849 15.8535 6.31407 15.9663C7.45965 16.0791 8.61536 15.9076 9.67886 15.4671C10.7423 15.0266 11.6808 14.3306 12.4111 13.4407C13.1413 12.5509 13.6409 11.4947 13.8655 10.3657C14.0901 9.23674 14.0328 8.06977 13.6987 6.96821C13.3645 5.86664 12.7639 4.86447 11.95 4.05047C11.358 3.45947 10.97 3.06547 10.602 2.58347C10.239 2.10747 9.87801 1.52047 9.39501 0.553468ZM9.12 13.1205C8.70046 13.5395 8.16615 13.8248 7.58455 13.9403C7.00296 14.0559 6.40016 13.9965 5.85231 13.7696C5.30446 13.5428 4.83612 13.1587 4.50644 12.6658C4.17676 12.1729 4.00053 11.5934 4.00001 11.0005C4.00001 11.0005 4.87901 11.5005 6.50001 11.5005C6.50001 10.5005 7.00001 7.50047 7.75001 7.00047C8.25001 8.00047 8.53601 8.29347 9.12101 8.87947C9.40004 9.15765 9.62135 9.48824 9.7722 9.85224C9.92305 10.2162 10.0005 10.6065 10 11.0005C10.0005 11.3945 9.92305 11.7847 9.7722 12.1487C9.62135 12.5127 9.40004 12.8433 9.12101 13.1215L9.12 13.1205Z"/>
</svg>
