<svg width="400" height="400" viewBox="0 0 400 400" fill="none" xmlns="http://www.w3.org/2000/svg">
<rect width="400" height="400" fill="#24202C"/>
<path fill-rule="evenodd" clip-rule="evenodd" d="M222.146 154.534C223.767 153.653 225.614 155.249 224.978 156.981L219.793 171.09C219.407 172.138 217.854 171.862 217.854 170.745V167.749C217.854 166.366 216.485 165.401 215.182 165.865L186.878 175.961C185.716 176.375 184.981 174.729 186.065 174.14L222.146 154.534Z" fill="#302B3B"/>
<path fill-rule="evenodd" clip-rule="evenodd" d="M222.146 245.466C223.767 246.347 225.614 244.751 224.978 243.019L219.793 228.91C219.407 227.862 217.854 228.138 217.854 229.255V232.251C217.854 233.634 216.485 234.599 215.182 234.135L186.878 224.039C185.716 223.625 184.981 225.271 186.065 225.86L222.146 245.466Z" fill="#302B3B"/>
<path fill-rule="evenodd" clip-rule="evenodd" d="M182.037 210.203C187.6 210.203 192.11 205.693 192.11 200.13C192.11 194.566 187.6 190.056 182.037 190.056C176.473 190.056 171.963 194.566 171.963 200.13C171.963 205.693 176.473 210.203 182.037 210.203ZM182.037 219.158C192.546 219.158 201.065 210.639 201.065 200.13C201.065 189.621 192.546 181.102 182.037 181.102C171.528 181.102 163.009 189.621 163.009 200.13C163.009 210.639 171.528 219.158 182.037 219.158Z" fill="#302B3B"/>
<path d="M204.982 185.579C204.982 188.052 206.987 190.056 209.459 190.056H212.258C217.821 190.056 222.331 194.566 222.331 200.13C222.331 205.693 217.821 210.203 212.258 210.203H209.459C206.987 210.203 204.982 212.208 204.982 214.681V214.681C204.982 217.153 206.987 219.158 209.459 219.158H212.258C222.767 219.158 231.286 210.639 231.286 200.13C231.286 189.621 222.767 181.102 212.258 181.102H209.459C206.987 181.102 204.982 183.106 204.982 185.579V185.579Z" fill="#302B3B"/>
<rect x="234.644" y="210.203" width="27.4228" height="8.95438" rx="4.47719" fill="#302B3B"/>
<rect x="234.644" y="195.653" width="14.5509" height="8.95438" rx="4.47719" fill="#302B3B"/>
<rect x="234.644" y="181.102" width="27.4228" height="8.95438" rx="4.47719" fill="#302B3B"/>
<path d="M139.311 196.767C137.563 198.516 137.563 201.35 139.311 203.099L152.37 216.158C154.119 217.906 156.954 217.906 158.702 216.158C160.451 214.409 160.451 211.575 158.702 209.826L150.223 201.347C149.442 200.566 149.442 199.3 150.223 198.519L158.702 190.04C160.451 188.291 160.451 185.456 158.702 183.708C156.954 181.959 154.119 181.959 152.37 183.708L139.311 196.767Z" fill="#302B3B"/>
</svg>
